<?xml version="1.0" encoding="UTF-8" standalone="no"?><svg xmlns="http://www.w3.org/2000/svg" xmlns:xlink="http://www.w3.org/1999/xlink" contentStyleType="text/css" height="748px" preserveAspectRatio="none" style="width:1521px;height:748px;background:#FFFFFF;" version="1.1" viewBox="0 0 1521 748" width="1521px" zoomAndPan="magnify"><defs/><g><text fill="#000000" font-family="sans-serif" font-size="14" font-weight="bold" lengthAdjust="spacing" textLength="78" x="714.75" y="22.9951">AdaChess</text><!--class Game--><g id="elem_Game"><rect codeLine="3" fill="#F1F1F1" height="145.7813" id="Game" rx="2.5" ry="2.5" style="stroke:#181818;stroke-width:0.5;" width="289" x="7" y="44.2969"/><ellipse cx="126.25" cy="60.2969" fill="#ADD1B2" rx="11" ry="11" style="stroke:#181818;stroke-width:1.0;"/><path d="M128.5938,55.9688 C127.6563,55.5313 127.0625,55.3906 126.1875,55.3906 C123.5625,55.3906 121.5625,57.4688 121.5625,60.1875 L121.5625,61.3125 C121.5625,63.8906 123.6719,65.7813 126.5625,65.7813 C127.7813,65.7813 128.9375,65.4844 129.6875,64.9375 C130.2656,64.5313 130.5938,64.0781 130.5938,63.6875 C130.5938,63.2344 130.2031,62.8438 129.7344,62.8438 C129.5156,62.8438 129.3125,62.9219 129.125,63.1094 C128.6719,63.5938 128.6719,63.5938 128.4844,63.6875 C128.0625,63.9531 127.375,64.0781 126.6094,64.0781 C124.5625,64.0781 123.2656,62.9844 123.2656,61.2813 L123.2656,60.1875 C123.2656,58.4063 124.5156,57.0938 126.25,57.0938 C126.8281,57.0938 127.4375,57.25 127.9063,57.5 C128.3906,57.7813 128.5625,58 128.6563,58.4063 C128.7188,58.8125 128.75,58.9375 128.8906,59.0625 C129.0313,59.2031 129.2656,59.3125 129.4844,59.3125 C129.75,59.3125 130.0156,59.1719 130.1875,58.9531 C130.2969,58.7969 130.3281,58.6094 130.3281,58.1875 L130.3281,56.7656 C130.3281,56.3281 130.3125,56.2031 130.2188,56.0469 C130.0625,55.7813 129.7813,55.6406 129.4844,55.6406 C129.1875,55.6406 128.9844,55.7344 128.7656,56.0469 L128.5938,55.9688 Z " fill="#000000"/><text fill="#000000" font-family="sans-serif" font-size="14" lengthAdjust="spacing" textLength="42" x="146.75" y="65.1436">Game</text><line style="stroke:#181818;stroke-width:0.5;" x1="8" x2="295" y1="76.2969" y2="76.2969"/><ellipse cx="18" cy="89.9453" fill="none" rx="3" ry="3" style="stroke:#038048;stroke-width:1.0;"/><text fill="#000000" font-family="sans-serif" font-size="14" lengthAdjust="spacing" textLength="88" x="27" y="93.292">Board board</text><ellipse cx="18" cy="106.2422" fill="none" rx="3" ry="3" style="stroke:#038048;stroke-width:1.0;"/><text fill="#000000" font-family="sans-serif" font-size="14" lengthAdjust="spacing" textLength="78" x="27" y="109.5889">colour turn</text><line style="stroke:#181818;stroke-width:0.5;" x1="8" x2="295" y1="116.8906" y2="116.8906"/><ellipse cx="18" cy="130.5391" fill="#84BE84" rx="3" ry="3" style="stroke:#038048;stroke-width:1.0;"/><text fill="#000000" font-family="sans-serif" font-size="14" lengthAdjust="spacing" textLength="218" x="27" y="133.8857">isValidMove(Coordinate move)</text><ellipse cx="18" cy="146.8359" fill="#84BE84" rx="3" ry="3" style="stroke:#038048;stroke-width:1.0;"/><text fill="#000000" font-family="sans-serif" font-size="14" lengthAdjust="spacing" textLength="250" x="27" y="150.1826">forbiddenMoves(Coordinate piece)</text><ellipse cx="18" cy="163.1328" fill="#84BE84" rx="3" ry="3" style="stroke:#038048;stroke-width:1.0;"/><text fill="#000000" font-family="sans-serif" font-size="14" lengthAdjust="spacing" textLength="163" x="27" y="166.4795">getMoves(Piece piece)</text><ellipse cx="18" cy="179.4297" fill="#84BE84" rx="3" ry="3" style="stroke:#038048;stroke-width:1.0;"/><text fill="#000000" font-family="sans-serif" font-size="14" lengthAdjust="spacing" textLength="263" x="27" y="182.7764">Move(Piece piece, Coordinate move)</text></g><!--class colour--><g id="elem_colour"><rect codeLine="12" fill="#F1F1F1" height="80.5938" id="colour" rx="2.5" ry="2.5" style="stroke:#181818;stroke-width:0.5;" width="76" x="49.5" y="661.2969"/><ellipse cx="64.5" cy="677.2969" fill="#EB937F" rx="11" ry="11" style="stroke:#181818;stroke-width:1.0;"/><path d="M63.2969,678.1719 L64.75,678.1719 L64.75,678.2813 C64.75,678.6875 64.7813,678.8438 64.8594,679 C65.0156,679.25 65.2969,679.4063 65.5938,679.4063 C65.8438,679.4063 66.1094,679.2656 66.2656,679.0469 C66.3906,678.8906 66.4219,678.7344 66.4219,678.2813 L66.4219,676.3594 C66.4219,676.2031 66.4219,676.1563 66.4063,676 C66.3438,675.5313 66.0313,675.2188 65.5781,675.2188 C65.3281,675.2188 65.0625,675.3594 64.8906,675.5781 C64.7813,675.75 64.75,675.9063 64.75,676.3594 L64.75,676.4844 L63.2969,676.4844 L63.2969,674.0781 L67.2813,674.0781 L67.2813,674.9375 C67.2813,675.3438 67.3125,675.5156 67.3906,675.6719 C67.5625,675.9219 67.8438,676.0781 68.125,676.0781 C68.3906,676.0781 68.6563,675.9375 68.8281,675.7188 C68.9375,675.5469 68.9688,675.4063 68.9688,674.9375 L68.9688,672.3906 L61.3438,672.3906 C60.9063,672.3906 60.7813,672.4063 60.625,672.5 C60.375,672.6563 60.2188,672.9531 60.2188,673.2344 C60.2188,673.5156 60.3594,673.7656 60.5781,673.9375 C60.7344,674.0469 60.9219,674.0781 61.3438,674.0781 L61.5938,674.0781 L61.5938,680.5938 L61.3438,680.5938 C60.9375,680.5938 60.7813,680.6094 60.625,680.7188 C60.375,680.8906 60.2188,681.1563 60.2188,681.4531 C60.2188,681.7188 60.3594,681.9688 60.5781,682.125 C60.7188,682.25 60.9531,682.2969 61.3438,682.2969 L69.3438,682.2969 L69.3438,679.7188 C69.3438,679.2813 69.3125,679.1406 69.2344,678.9844 C69.0625,678.7344 68.7813,678.5781 68.5,678.5781 C68.2344,678.5781 67.9688,678.6875 67.7969,678.9375 C67.6875,679.0938 67.6563,679.2344 67.6563,679.7188 L67.6563,680.5938 L63.2969,680.5938 L63.2969,678.1719 Z " fill="#000000"/><text fill="#000000" font-family="sans-serif" font-size="14" lengthAdjust="spacing" textLength="44" x="78.5" y="682.1436">colour</text><line style="stroke:#181818;stroke-width:0.5;" x1="50.5" x2="124.5" y1="693.2969" y2="693.2969"/><ellipse cx="60.5" cy="706.9453" fill="none" rx="3" ry="3" style="stroke:#038048;stroke-width:1.0;"/><text fill="#000000" font-family="sans-serif" font-size="14" lengthAdjust="spacing" textLength="40" x="69.5" y="710.292">white</text><ellipse cx="60.5" cy="723.2422" fill="none" rx="3" ry="3" style="stroke:#038048;stroke-width:1.0;"/><text fill="#000000" font-family="sans-serif" font-size="14" lengthAdjust="spacing" textLength="39" x="69.5" y="726.5889">black</text><line style="stroke:#181818;stroke-width:0.5;" x1="50.5" x2="124.5" y1="733.8906" y2="733.8906"/></g><!--class Coordinate--><g id="elem_Coordinate"><rect codeLine="17" fill="#F1F1F1" height="80.5938" id="Coordinate" rx="2.5" ry="2.5" style="stroke:#181818;stroke-width:0.5;" width="112" x="160.5" y="661.2969"/><ellipse cx="175.5" cy="677.2969" fill="#ADD1B2" rx="11" ry="11" style="stroke:#181818;stroke-width:1.0;"/><path d="M177.8438,672.9688 C176.9063,672.5313 176.3125,672.3906 175.4375,672.3906 C172.8125,672.3906 170.8125,674.4688 170.8125,677.1875 L170.8125,678.3125 C170.8125,680.8906 172.9219,682.7813 175.8125,682.7813 C177.0313,682.7813 178.1875,682.4844 178.9375,681.9375 C179.5156,681.5313 179.8438,681.0781 179.8438,680.6875 C179.8438,680.2344 179.4531,679.8438 178.9844,679.8438 C178.7656,679.8438 178.5625,679.9219 178.375,680.1094 C177.9219,680.5938 177.9219,680.5938 177.7344,680.6875 C177.3125,680.9531 176.625,681.0781 175.8594,681.0781 C173.8125,681.0781 172.5156,679.9844 172.5156,678.2813 L172.5156,677.1875 C172.5156,675.4063 173.7656,674.0938 175.5,674.0938 C176.0781,674.0938 176.6875,674.25 177.1563,674.5 C177.6406,674.7813 177.8125,675 177.9063,675.4063 C177.9688,675.8125 178,675.9375 178.1406,676.0625 C178.2813,676.2031 178.5156,676.3125 178.7344,676.3125 C179,676.3125 179.2656,676.1719 179.4375,675.9531 C179.5469,675.7969 179.5781,675.6094 179.5781,675.1875 L179.5781,673.7656 C179.5781,673.3281 179.5625,673.2031 179.4688,673.0469 C179.3125,672.7813 179.0313,672.6406 178.7344,672.6406 C178.4375,672.6406 178.2344,672.7344 178.0156,673.0469 L177.8438,672.9688 Z " fill="#000000"/><text fill="#000000" font-family="sans-serif" font-size="14" lengthAdjust="spacing" textLength="80" x="189.5" y="682.1436">Coordinate</text><line style="stroke:#181818;stroke-width:0.5;" x1="161.5" x2="271.5" y1="693.2969" y2="693.2969"/><ellipse cx="171.5" cy="706.9453" fill="none" rx="3" ry="3" style="stroke:#038048;stroke-width:1.0;"/><text fill="#000000" font-family="sans-serif" font-size="14" lengthAdjust="spacing" textLength="32" x="180.5" y="710.292">Int x</text><ellipse cx="171.5" cy="723.2422" fill="none" rx="3" ry="3" style="stroke:#038048;stroke-width:1.0;"/><text fill="#000000" font-family="sans-serif" font-size="14" lengthAdjust="spacing" textLength="32" x="180.5" y="726.5889">Int y</text><line style="stroke:#181818;stroke-width:0.5;" x1="161.5" x2="271.5" y1="733.8906" y2="733.8906"/></g><!--class Box--><g id="elem_Box"><rect codeLine="22" fill="#F1F1F1" height="178.375" id="Box" rx="2.5" ry="2.5" style="stroke:#181818;stroke-width:0.5;" width="188" x="57.5" y="423.2969"/><ellipse cx="133.75" cy="439.2969" fill="#ADD1B2" rx="11" ry="11" style="stroke:#181818;stroke-width:1.0;"/><path d="M136.0938,434.9688 C135.1563,434.5313 134.5625,434.3906 133.6875,434.3906 C131.0625,434.3906 129.0625,436.4688 129.0625,439.1875 L129.0625,440.3125 C129.0625,442.8906 131.1719,444.7813 134.0625,444.7813 C135.2813,444.7813 136.4375,444.4844 137.1875,443.9375 C137.7656,443.5313 138.0938,443.0781 138.0938,442.6875 C138.0938,442.2344 137.7031,441.8438 137.2344,441.8438 C137.0156,441.8438 136.8125,441.9219 136.625,442.1094 C136.1719,442.5938 136.1719,442.5938 135.9844,442.6875 C135.5625,442.9531 134.875,443.0781 134.1094,443.0781 C132.0625,443.0781 130.7656,441.9844 130.7656,440.2813 L130.7656,439.1875 C130.7656,437.4063 132.0156,436.0938 133.75,436.0938 C134.3281,436.0938 134.9375,436.25 135.4063,436.5 C135.8906,436.7813 136.0625,437 136.1563,437.4063 C136.2188,437.8125 136.25,437.9375 136.3906,438.0625 C136.5313,438.2031 136.7656,438.3125 136.9844,438.3125 C137.25,438.3125 137.5156,438.1719 137.6875,437.9531 C137.7969,437.7969 137.8281,437.6094 137.8281,437.1875 L137.8281,435.7656 C137.8281,435.3281 137.8125,435.2031 137.7188,435.0469 C137.5625,434.7813 137.2813,434.6406 136.9844,434.6406 C136.6875,434.6406 136.4844,434.7344 136.2656,435.0469 L136.0938,434.9688 Z " fill="#000000"/><text fill="#000000" font-family="sans-serif" font-size="14" lengthAdjust="spacing" textLength="27" x="154.25" y="444.1436">Box</text><line style="stroke:#181818;stroke-width:0.5;" x1="58.5" x2="244.5" y1="455.2969" y2="455.2969"/><ellipse cx="68.5" cy="468.9453" fill="none" rx="3" ry="3" style="stroke:#038048;stroke-width:1.0;"/><text fill="#000000" font-family="sans-serif" font-size="14" lengthAdjust="spacing" textLength="162" x="77.5" y="472.292">Coordinate coordinate</text><ellipse cx="68.5" cy="485.2422" fill="none" rx="3" ry="3" style="stroke:#038048;stroke-width:1.0;"/><text fill="#000000" font-family="sans-serif" font-size="14" lengthAdjust="spacing" textLength="127" x="77.5" y="488.5889">boolean occupied</text><ellipse cx="68.5" cy="501.5391" fill="none" rx="3" ry="3" style="stroke:#038048;stroke-width:1.0;"/><text fill="#000000" font-family="sans-serif" font-size="14" lengthAdjust="spacing" textLength="92" x="77.5" y="504.8857">colour colour</text><ellipse cx="68.5" cy="517.8359" fill="none" rx="3" ry="3" style="stroke:#038048;stroke-width:1.0;"/><text fill="#000000" font-family="sans-serif" font-size="14" lengthAdjust="spacing" textLength="93" x="77.5" y="521.1826">Piece[] piece</text><line style="stroke:#181818;stroke-width:0.5;" x1="58.5" x2="244.5" y1="528.4844" y2="528.4844"/><ellipse cx="68.5" cy="542.1328" fill="#84BE84" rx="3" ry="3" style="stroke:#038048;stroke-width:1.0;"/><text fill="#000000" font-family="sans-serif" font-size="14" lengthAdjust="spacing" textLength="88" x="77.5" y="545.4795">isOccupied()</text><ellipse cx="68.5" cy="558.4297" fill="#84BE84" rx="3" ry="3" style="stroke:#038048;stroke-width:1.0;"/><text fill="#000000" font-family="sans-serif" font-size="14" lengthAdjust="spacing" textLength="48" x="77.5" y="561.7764">reset()</text><ellipse cx="68.5" cy="574.7266" fill="#84BE84" rx="3" ry="3" style="stroke:#038048;stroke-width:1.0;"/><text fill="#000000" font-family="sans-serif" font-size="14" lengthAdjust="spacing" textLength="100" x="77.5" y="578.0732">setOccupied()</text><ellipse cx="68.5" cy="591.0234" fill="#84BE84" rx="3" ry="3" style="stroke:#038048;stroke-width:1.0;"/><text fill="#000000" font-family="sans-serif" font-size="14" lengthAdjust="spacing" textLength="81" x="77.5" y="594.3701">getColour()</text></g><!--class Board--><g id="elem_Board"><rect codeLine="33" fill="#F1F1F1" height="113.1875" id="Board" rx="2.5" ry="2.5" style="stroke:#181818;stroke-width:0.5;" width="143" x="80" y="250.2969"/><ellipse cx="126.25" cy="266.2969" fill="#ADD1B2" rx="11" ry="11" style="stroke:#181818;stroke-width:1.0;"/><path d="M128.5938,261.9688 C127.6563,261.5313 127.0625,261.3906 126.1875,261.3906 C123.5625,261.3906 121.5625,263.4688 121.5625,266.1875 L121.5625,267.3125 C121.5625,269.8906 123.6719,271.7813 126.5625,271.7813 C127.7813,271.7813 128.9375,271.4844 129.6875,270.9375 C130.2656,270.5313 130.5938,270.0781 130.5938,269.6875 C130.5938,269.2344 130.2031,268.8438 129.7344,268.8438 C129.5156,268.8438 129.3125,268.9219 129.125,269.1094 C128.6719,269.5938 128.6719,269.5938 128.4844,269.6875 C128.0625,269.9531 127.375,270.0781 126.6094,270.0781 C124.5625,270.0781 123.2656,268.9844 123.2656,267.2813 L123.2656,266.1875 C123.2656,264.4063 124.5156,263.0938 126.25,263.0938 C126.8281,263.0938 127.4375,263.25 127.9063,263.5 C128.3906,263.7813 128.5625,264 128.6563,264.4063 C128.7188,264.8125 128.75,264.9375 128.8906,265.0625 C129.0313,265.2031 129.2656,265.3125 129.4844,265.3125 C129.75,265.3125 130.0156,265.1719 130.1875,264.9531 C130.2969,264.7969 130.3281,264.6094 130.3281,264.1875 L130.3281,262.7656 C130.3281,262.3281 130.3125,262.2031 130.2188,262.0469 C130.0625,261.7813 129.7813,261.6406 129.4844,261.6406 C129.1875,261.6406 128.9844,261.7344 128.7656,262.0469 L128.5938,261.9688 Z " fill="#000000"/><text fill="#000000" font-family="sans-serif" font-size="14" lengthAdjust="spacing" textLength="42" x="146.75" y="271.1436">Board</text><line style="stroke:#181818;stroke-width:0.5;" x1="81" x2="222" y1="282.2969" y2="282.2969"/><ellipse cx="91" cy="295.9453" fill="none" rx="3" ry="3" style="stroke:#038048;stroke-width:1.0;"/><text fill="#000000" font-family="sans-serif" font-size="14" lengthAdjust="spacing" textLength="94" x="100" y="299.292">Box[][] boxes</text><ellipse cx="91" cy="312.2422" fill="none" rx="3" ry="3" style="stroke:#038048;stroke-width:1.0;"/><text fill="#000000" font-family="sans-serif" font-size="14" lengthAdjust="spacing" textLength="52" x="100" y="315.5889">Int size</text><line style="stroke:#181818;stroke-width:0.5;" x1="81" x2="222" y1="322.8906" y2="322.8906"/><ellipse cx="91" cy="336.5391" fill="#84BE84" rx="3" ry="3" style="stroke:#038048;stroke-width:1.0;"/><text fill="#000000" font-family="sans-serif" font-size="14" lengthAdjust="spacing" textLength="117" x="100" y="339.8857">populateBoard()</text><ellipse cx="91" cy="352.8359" fill="#84BE84" rx="3" ry="3" style="stroke:#038048;stroke-width:1.0;"/><text fill="#000000" font-family="sans-serif" font-size="14" lengthAdjust="spacing" textLength="88" x="100" y="356.1826">printBoard()</text></g><!--class Piece--><g id="elem_Piece"><rect codeLine="40" fill="#F1F1F1" height="129.4844" id="Piece" rx="2.5" ry="2.5" style="stroke:#181818;stroke-width:0.5;" width="189" x="609" y="447.7969"/><ellipse cx="680.25" cy="463.7969" fill="#A9DCDF" rx="11" ry="11" style="stroke:#181818;stroke-width:1.0;"/><path d="M682.3281,465.6094 L682.7188,466.5938 L682.3281,466.5938 C681.875,466.5938 681.7656,466.6094 681.6094,466.7188 C681.3594,466.875 681.2031,467.1563 681.2031,467.4531 C681.2031,467.7188 681.3438,467.9688 681.5625,468.125 C681.7031,468.25 681.9063,468.2969 682.3281,468.2969 L684.6875,468.2969 C685.0469,468.2969 685.2656,468.2656 685.4063,468.1719 C685.6563,468.0313 685.8125,467.7344 685.8125,467.4531 C685.8125,467.1719 685.6719,466.9219 685.4531,466.7656 C685.2813,466.625 685.125,466.5938 684.6563,466.5938 L681.2656,458.3906 L677.5938,458.3906 C677.1406,458.3906 677.0156,458.4063 676.8594,458.5 C676.6094,458.6719 676.4531,458.9531 676.4531,459.2344 C676.4531,459.5156 676.5938,459.7656 676.8125,459.9375 C676.9844,460.0469 677.1563,460.0781 677.5938,460.0781 L678.6719,460.0781 L676.0313,466.5938 C675.6094,466.5938 675.4531,466.6094 675.2969,466.7188 C675.0469,466.875 674.8906,467.1563 674.8906,467.4531 C674.8906,468.0156 675.2656,468.2969 676.0156,468.2969 L678.2813,468.2969 C678.6406,468.2969 678.8594,468.2656 678.9844,468.1719 C679.25,468.0313 679.3906,467.7344 679.3906,467.4531 C679.3906,467.1719 679.2656,466.9219 679.0469,466.75 C678.875,466.625 678.7344,466.5938 678.2813,466.5938 L677.8906,466.5938 L678.2813,465.6094 L682.3281,465.6094 Z M681.625,463.9063 L678.9531,463.9063 L680.2969,460.6406 L681.625,463.9063 Z " fill="#000000"/><text fill="#000000" font-family="sans-serif" font-size="14" font-style="italic" lengthAdjust="spacing" textLength="38" x="700.75" y="468.6436">Piece</text><line style="stroke:#181818;stroke-width:0.5;" x1="610" x2="797" y1="479.7969" y2="479.7969"/><ellipse cx="620" cy="493.4453" fill="none" rx="3" ry="3" style="stroke:#038048;stroke-width:1.0;"/><text fill="#000000" font-family="sans-serif" font-size="14" lengthAdjust="spacing" textLength="95" x="629" y="496.792">Colour:colour</text><ellipse cx="620" cy="509.7422" fill="none" rx="3" ry="3" style="stroke:#038048;stroke-width:1.0;"/><text fill="#000000" font-family="sans-serif" font-size="14" lengthAdjust="spacing" textLength="163" x="629" y="513.0889">Coordinate:coordinate</text><ellipse cx="620" cy="526.0391" fill="none" rx="3" ry="3" style="stroke:#038048;stroke-width:1.0;"/><text fill="#000000" font-family="sans-serif" font-size="14" lengthAdjust="spacing" textLength="75" x="629" y="529.3857">Type:type</text><line style="stroke:#181818;stroke-width:0.5;" x1="610" x2="797" y1="536.6875" y2="536.6875"/><ellipse cx="620" cy="550.3359" fill="#84BE84" rx="3" ry="3" style="stroke:#038048;stroke-width:1.0;"/><text fill="#000000" font-family="sans-serif" font-size="14" lengthAdjust="spacing" textLength="81" x="629" y="553.6826">getColour()</text><ellipse cx="620" cy="566.6328" fill="#84BE84" rx="3" ry="3" style="stroke:#038048;stroke-width:1.0;"/><text fill="#000000" font-family="sans-serif" font-size="14" lengthAdjust="spacing" textLength="71" x="629" y="569.9795">getType()</text></g><!--class Pawn--><g id="elem_Pawn"><rect codeLine="47" fill="#F1F1F1" height="80.5938" id="Pawn" rx="2.5" ry="2.5" style="stroke:#181818;stroke-width:0.5;" width="172" x="307.5" y="661.2969"/><ellipse cx="370.75" cy="677.2969" fill="#ADD1B2" rx="11" ry="11" style="stroke:#181818;stroke-width:1.0;"/><path d="M373.0938,672.9688 C372.1563,672.5313 371.5625,672.3906 370.6875,672.3906 C368.0625,672.3906 366.0625,674.4688 366.0625,677.1875 L366.0625,678.3125 C366.0625,680.8906 368.1719,682.7813 371.0625,682.7813 C372.2813,682.7813 373.4375,682.4844 374.1875,681.9375 C374.7656,681.5313 375.0938,681.0781 375.0938,680.6875 C375.0938,680.2344 374.7031,679.8438 374.2344,679.8438 C374.0156,679.8438 373.8125,679.9219 373.625,680.1094 C373.1719,680.5938 373.1719,680.5938 372.9844,680.6875 C372.5625,680.9531 371.875,681.0781 371.1094,681.0781 C369.0625,681.0781 367.7656,679.9844 367.7656,678.2813 L367.7656,677.1875 C367.7656,675.4063 369.0156,674.0938 370.75,674.0938 C371.3281,674.0938 371.9375,674.25 372.4063,674.5 C372.8906,674.7813 373.0625,675 373.1563,675.4063 C373.2188,675.8125 373.25,675.9375 373.3906,676.0625 C373.5313,676.2031 373.7656,676.3125 373.9844,676.3125 C374.25,676.3125 374.5156,676.1719 374.6875,675.9531 C374.7969,675.7969 374.8281,675.6094 374.8281,675.1875 L374.8281,673.7656 C374.8281,673.3281 374.8125,673.2031 374.7188,673.0469 C374.5625,672.7813 374.2813,672.6406 373.9844,672.6406 C373.6875,672.6406 373.4844,672.7344 373.2656,673.0469 L373.0938,672.9688 Z " fill="#000000"/><text fill="#000000" font-family="sans-serif" font-size="14" lengthAdjust="spacing" textLength="37" x="391.25" y="682.1436">Pawn</text><line style="stroke:#181818;stroke-width:0.5;" x1="308.5" x2="478.5" y1="693.2969" y2="693.2969"/><ellipse cx="318.5" cy="706.9453" fill="none" rx="3" ry="3" style="stroke:#038048;stroke-width:1.0;"/><text fill="#000000" font-family="sans-serif" font-size="14" lengthAdjust="spacing" textLength="146" x="327.5" y="710.292">Box[] possibleMoves</text><line style="stroke:#181818;stroke-width:0.5;" x1="308.5" x2="478.5" y1="717.5938" y2="717.5938"/><ellipse cx="318.5" cy="731.2422" fill="#84BE84" rx="3" ry="3" style="stroke:#038048;stroke-width:1.0;"/><text fill="#000000" font-family="sans-serif" font-size="14" lengthAdjust="spacing" textLength="139" x="327.5" y="734.5889">getPossibleMoves()</text></g><!--class Bishop--><g id="elem_Bishop"><rect codeLine="52" fill="#F1F1F1" height="80.5938" id="Bishop" rx="2.5" ry="2.5" style="stroke:#181818;stroke-width:0.5;" width="172" x="514.5" y="661.2969"/><ellipse cx="571.75" cy="677.2969" fill="#ADD1B2" rx="11" ry="11" style="stroke:#181818;stroke-width:1.0;"/><path d="M574.0938,672.9688 C573.1563,672.5313 572.5625,672.3906 571.6875,672.3906 C569.0625,672.3906 567.0625,674.4688 567.0625,677.1875 L567.0625,678.3125 C567.0625,680.8906 569.1719,682.7813 572.0625,682.7813 C573.2813,682.7813 574.4375,682.4844 575.1875,681.9375 C575.7656,681.5313 576.0938,681.0781 576.0938,680.6875 C576.0938,680.2344 575.7031,679.8438 575.2344,679.8438 C575.0156,679.8438 574.8125,679.9219 574.625,680.1094 C574.1719,680.5938 574.1719,680.5938 573.9844,680.6875 C573.5625,680.9531 572.875,681.0781 572.1094,681.0781 C570.0625,681.0781 568.7656,679.9844 568.7656,678.2813 L568.7656,677.1875 C568.7656,675.4063 570.0156,674.0938 571.75,674.0938 C572.3281,674.0938 572.9375,674.25 573.4063,674.5 C573.8906,674.7813 574.0625,675 574.1563,675.4063 C574.2188,675.8125 574.25,675.9375 574.3906,676.0625 C574.5313,676.2031 574.7656,676.3125 574.9844,676.3125 C575.25,676.3125 575.5156,676.1719 575.6875,675.9531 C575.7969,675.7969 575.8281,675.6094 575.8281,675.1875 L575.8281,673.7656 C575.8281,673.3281 575.8125,673.2031 575.7188,673.0469 C575.5625,672.7813 575.2813,672.6406 574.9844,672.6406 C574.6875,672.6406 574.4844,672.7344 574.2656,673.0469 L574.0938,672.9688 Z " fill="#000000"/><text fill="#000000" font-family="sans-serif" font-size="14" lengthAdjust="spacing" textLength="49" x="592.25" y="682.1436">Bishop</text><line style="stroke:#181818;stroke-width:0.5;" x1="515.5" x2="685.5" y1="693.2969" y2="693.2969"/><ellipse cx="525.5" cy="706.9453" fill="none" rx="3" ry="3" style="stroke:#038048;stroke-width:1.0;"/><text fill="#000000" font-family="sans-serif" font-size="14" lengthAdjust="spacing" textLength="146" x="534.5" y="710.292">Box[] possibleMoves</text><line style="stroke:#181818;stroke-width:0.5;" x1="515.5" x2="685.5" y1="717.5938" y2="717.5938"/><ellipse cx="525.5" cy="731.2422" fill="#84BE84" rx="3" ry="3" style="stroke:#038048;stroke-width:1.0;"/><text fill="#000000" font-family="sans-serif" font-size="14" lengthAdjust="spacing" textLength="139" x="534.5" y="734.5889">getPossibleMoves()</text></g><!--class Rook--><g id="elem_Rook"><rect codeLine="57" fill="#F1F1F1" height="80.5938" id="Rook" rx="2.5" ry="2.5" style="stroke:#181818;stroke-width:0.5;" width="172" x="721.5" y="661.2969"/><ellipse cx="784.75" cy="677.2969" fill="#ADD1B2" rx="11" ry="11" style="stroke:#181818;stroke-width:1.0;"/><path d="M787.0938,672.9688 C786.1563,672.5313 785.5625,672.3906 784.6875,672.3906 C782.0625,672.3906 780.0625,674.4688 780.0625,677.1875 L780.0625,678.3125 C780.0625,680.8906 782.1719,682.7813 785.0625,682.7813 C786.2813,682.7813 787.4375,682.4844 788.1875,681.9375 C788.7656,681.5313 789.0938,681.0781 789.0938,680.6875 C789.0938,680.2344 788.7031,679.8438 788.2344,679.8438 C788.0156,679.8438 787.8125,679.9219 787.625,680.1094 C787.1719,680.5938 787.1719,680.5938 786.9844,680.6875 C786.5625,680.9531 785.875,681.0781 785.1094,681.0781 C783.0625,681.0781 781.7656,679.9844 781.7656,678.2813 L781.7656,677.1875 C781.7656,675.4063 783.0156,674.0938 784.75,674.0938 C785.3281,674.0938 785.9375,674.25 786.4063,674.5 C786.8906,674.7813 787.0625,675 787.1563,675.4063 C787.2188,675.8125 787.25,675.9375 787.3906,676.0625 C787.5313,676.2031 787.7656,676.3125 787.9844,676.3125 C788.25,676.3125 788.5156,676.1719 788.6875,675.9531 C788.7969,675.7969 788.8281,675.6094 788.8281,675.1875 L788.8281,673.7656 C788.8281,673.3281 788.8125,673.2031 788.7188,673.0469 C788.5625,672.7813 788.2813,672.6406 787.9844,672.6406 C787.6875,672.6406 787.4844,672.7344 787.2656,673.0469 L787.0938,672.9688 Z " fill="#000000"/><text fill="#000000" font-family="sans-serif" font-size="14" lengthAdjust="spacing" textLength="37" x="805.25" y="682.1436">Rook</text><line style="stroke:#181818;stroke-width:0.5;" x1="722.5" x2="892.5" y1="693.2969" y2="693.2969"/><ellipse cx="732.5" cy="706.9453" fill="none" rx="3" ry="3" style="stroke:#038048;stroke-width:1.0;"/><text fill="#000000" font-family="sans-serif" font-size="14" lengthAdjust="spacing" textLength="146" x="741.5" y="710.292">Box[] possibleMoves</text><line style="stroke:#181818;stroke-width:0.5;" x1="722.5" x2="892.5" y1="717.5938" y2="717.5938"/><ellipse cx="732.5" cy="731.2422" fill="#84BE84" rx="3" ry="3" style="stroke:#038048;stroke-width:1.0;"/><text fill="#000000" font-family="sans-serif" font-size="14" lengthAdjust="spacing" textLength="139" x="741.5" y="734.5889">getPossibleMoves()</text></g><!--class Knight--><g id="elem_Knight"><rect codeLine="62" fill="#F1F1F1" height="80.5938" id="Knight" rx="2.5" ry="2.5" style="stroke:#181818;stroke-width:0.5;" width="172" x="928.5" y="661.2969"/><ellipse cx="986.25" cy="677.2969" fill="#ADD1B2" rx="11" ry="11" style="stroke:#181818;stroke-width:1.0;"/><path d="M988.5938,672.9688 C987.6563,672.5313 987.0625,672.3906 986.1875,672.3906 C983.5625,672.3906 981.5625,674.4688 981.5625,677.1875 L981.5625,678.3125 C981.5625,680.8906 983.6719,682.7813 986.5625,682.7813 C987.7813,682.7813 988.9375,682.4844 989.6875,681.9375 C990.2656,681.5313 990.5938,681.0781 990.5938,680.6875 C990.5938,680.2344 990.2031,679.8438 989.7344,679.8438 C989.5156,679.8438 989.3125,679.9219 989.125,680.1094 C988.6719,680.5938 988.6719,680.5938 988.4844,680.6875 C988.0625,680.9531 987.375,681.0781 986.6094,681.0781 C984.5625,681.0781 983.2656,679.9844 983.2656,678.2813 L983.2656,677.1875 C983.2656,675.4063 984.5156,674.0938 986.25,674.0938 C986.8281,674.0938 987.4375,674.25 987.9063,674.5 C988.3906,674.7813 988.5625,675 988.6563,675.4063 C988.7188,675.8125 988.75,675.9375 988.8906,676.0625 C989.0313,676.2031 989.2656,676.3125 989.4844,676.3125 C989.75,676.3125 990.0156,676.1719 990.1875,675.9531 C990.2969,675.7969 990.3281,675.6094 990.3281,675.1875 L990.3281,673.7656 C990.3281,673.3281 990.3125,673.2031 990.2188,673.0469 C990.0625,672.7813 989.7813,672.6406 989.4844,672.6406 C989.1875,672.6406 988.9844,672.7344 988.7656,673.0469 L988.5938,672.9688 Z " fill="#000000"/><text fill="#000000" font-family="sans-serif" font-size="14" lengthAdjust="spacing" textLength="48" x="1006.75" y="682.1436">Knight</text><line style="stroke:#181818;stroke-width:0.5;" x1="929.5" x2="1099.5" y1="693.2969" y2="693.2969"/><ellipse cx="939.5" cy="706.9453" fill="none" rx="3" ry="3" style="stroke:#038048;stroke-width:1.0;"/><text fill="#000000" font-family="sans-serif" font-size="14" lengthAdjust="spacing" textLength="146" x="948.5" y="710.292">Box[] possibleMoves</text><line style="stroke:#181818;stroke-width:0.5;" x1="929.5" x2="1099.5" y1="717.5938" y2="717.5938"/><ellipse cx="939.5" cy="731.2422" fill="#84BE84" rx="3" ry="3" style="stroke:#038048;stroke-width:1.0;"/><text fill="#000000" font-family="sans-serif" font-size="14" lengthAdjust="spacing" textLength="139" x="948.5" y="734.5889">getPossibleMoves()</text></g><!--class Queen--><g id="elem_Queen"><rect codeLine="67" fill="#F1F1F1" height="80.5938" id="Queen" rx="2.5" ry="2.5" style="stroke:#181818;stroke-width:0.5;" width="172" x="1135.5" y="661.2969"/><ellipse cx="1194.25" cy="677.2969" fill="#ADD1B2" rx="11" ry="11" style="stroke:#181818;stroke-width:1.0;"/><path d="M1196.5938,672.9688 C1195.6563,672.5313 1195.0625,672.3906 1194.1875,672.3906 C1191.5625,672.3906 1189.5625,674.4688 1189.5625,677.1875 L1189.5625,678.3125 C1189.5625,680.8906 1191.6719,682.7813 1194.5625,682.7813 C1195.7813,682.7813 1196.9375,682.4844 1197.6875,681.9375 C1198.2656,681.5313 1198.5938,681.0781 1198.5938,680.6875 C1198.5938,680.2344 1198.2031,679.8438 1197.7344,679.8438 C1197.5156,679.8438 1197.3125,679.9219 1197.125,680.1094 C1196.6719,680.5938 1196.6719,680.5938 1196.4844,680.6875 C1196.0625,680.9531 1195.375,681.0781 1194.6094,681.0781 C1192.5625,681.0781 1191.2656,679.9844 1191.2656,678.2813 L1191.2656,677.1875 C1191.2656,675.4063 1192.5156,674.0938 1194.25,674.0938 C1194.8281,674.0938 1195.4375,674.25 1195.9063,674.5 C1196.3906,674.7813 1196.5625,675 1196.6563,675.4063 C1196.7188,675.8125 1196.75,675.9375 1196.8906,676.0625 C1197.0313,676.2031 1197.2656,676.3125 1197.4844,676.3125 C1197.75,676.3125 1198.0156,676.1719 1198.1875,675.9531 C1198.2969,675.7969 1198.3281,675.6094 1198.3281,675.1875 L1198.3281,673.7656 C1198.3281,673.3281 1198.3125,673.2031 1198.2188,673.0469 C1198.0625,672.7813 1197.7813,672.6406 1197.4844,672.6406 C1197.1875,672.6406 1196.9844,672.7344 1196.7656,673.0469 L1196.5938,672.9688 Z " fill="#000000"/><text fill="#000000" font-family="sans-serif" font-size="14" lengthAdjust="spacing" textLength="46" x="1214.75" y="682.1436">Queen</text><line style="stroke:#181818;stroke-width:0.5;" x1="1136.5" x2="1306.5" y1="693.2969" y2="693.2969"/><ellipse cx="1146.5" cy="706.9453" fill="none" rx="3" ry="3" style="stroke:#038048;stroke-width:1.0;"/><text fill="#000000" font-family="sans-serif" font-size="14" lengthAdjust="spacing" textLength="146" x="1155.5" y="710.292">Box[] possibleMoves</text><line style="stroke:#181818;stroke-width:0.5;" x1="1136.5" x2="1306.5" y1="717.5938" y2="717.5938"/><ellipse cx="1146.5" cy="731.2422" fill="#84BE84" rx="3" ry="3" style="stroke:#038048;stroke-width:1.0;"/><text fill="#000000" font-family="sans-serif" font-size="14" lengthAdjust="spacing" textLength="139" x="1155.5" y="734.5889">getPossibleMoves()</text></g><!--class King--><g id="elem_King"><rect codeLine="72" fill="#F1F1F1" height="80.5938" id="King" rx="2.5" ry="2.5" style="stroke:#181818;stroke-width:0.5;" width="172" x="1342.5" y="661.2969"/><ellipse cx="1408.25" cy="677.2969" fill="#ADD1B2" rx="11" ry="11" style="stroke:#181818;stroke-width:1.0;"/><path d="M1410.5938,672.9688 C1409.6563,672.5313 1409.0625,672.3906 1408.1875,672.3906 C1405.5625,672.3906 1403.5625,674.4688 1403.5625,677.1875 L1403.5625,678.3125 C1403.5625,680.8906 1405.6719,682.7813 1408.5625,682.7813 C1409.7813,682.7813 1410.9375,682.4844 1411.6875,681.9375 C1412.2656,681.5313 1412.5938,681.0781 1412.5938,680.6875 C1412.5938,680.2344 1412.2031,679.8438 1411.7344,679.8438 C1411.5156,679.8438 1411.3125,679.9219 1411.125,680.1094 C1410.6719,680.5938 1410.6719,680.5938 1410.4844,680.6875 C1410.0625,680.9531 1409.375,681.0781 1408.6094,681.0781 C1406.5625,681.0781 1405.2656,679.9844 1405.2656,678.2813 L1405.2656,677.1875 C1405.2656,675.4063 1406.5156,674.0938 1408.25,674.0938 C1408.8281,674.0938 1409.4375,674.25 1409.9063,674.5 C1410.3906,674.7813 1410.5625,675 1410.6563,675.4063 C1410.7188,675.8125 1410.75,675.9375 1410.8906,676.0625 C1411.0313,676.2031 1411.2656,676.3125 1411.4844,676.3125 C1411.75,676.3125 1412.0156,676.1719 1412.1875,675.9531 C1412.2969,675.7969 1412.3281,675.6094 1412.3281,675.1875 L1412.3281,673.7656 C1412.3281,673.3281 1412.3125,673.2031 1412.2188,673.0469 C1412.0625,672.7813 1411.7813,672.6406 1411.4844,672.6406 C1411.1875,672.6406 1410.9844,672.7344 1410.7656,673.0469 L1410.5938,672.9688 Z " fill="#000000"/><text fill="#000000" font-family="sans-serif" font-size="14" lengthAdjust="spacing" textLength="32" x="1428.75" y="682.1436">King</text><line style="stroke:#181818;stroke-width:0.5;" x1="1343.5" x2="1513.5" y1="693.2969" y2="693.2969"/><ellipse cx="1353.5" cy="706.9453" fill="none" rx="3" ry="3" style="stroke:#038048;stroke-width:1.0;"/><text fill="#000000" font-family="sans-serif" font-size="14" lengthAdjust="spacing" textLength="146" x="1362.5" y="710.292">Box[] possibleMoves</text><line style="stroke:#181818;stroke-width:0.5;" x1="1343.5" x2="1513.5" y1="717.5938" y2="717.5938"/><ellipse cx="1353.5" cy="731.2422" fill="#84BE84" rx="3" ry="3" style="stroke:#038048;stroke-width:1.0;"/><text fill="#000000" font-family="sans-serif" font-size="14" lengthAdjust="spacing" textLength="139" x="1362.5" y="734.5889">getPossibleMoves()</text></g><!--reverse link Piece to Pawn--><g id="link_Piece_Pawn"><path d="M591.433,581.0789 C547.037,607.9319 497.54,637.8699 459.148,661.0903 " fill="none" id="Piece-backto-Pawn" style="stroke:#181818;stroke-width:1.0;stroke-dasharray:7.0,7.0;"/><polygon fill="none" points="588.069,574.9329,608.805,570.5719,595.315,586.9119,588.069,574.9329" style="stroke:#181818;stroke-width:1.0;"/></g><!--reverse link Piece to Bishop--><g id="link_Piece_Bishop"><path d="M658.734,594.7879 C646.069,617.8439 632.851,641.9049 622.216,661.2661 " fill="none" id="Piece-backto-Bishop" style="stroke:#181818;stroke-width:1.0;stroke-dasharray:7.0,7.0;"/><polygon fill="none" points="652.72,591.1969,668.485,577.0379,664.991,597.9369,652.72,591.1969" style="stroke:#181818;stroke-width:1.0;"/></g><!--reverse link Piece to Rook--><g id="link_Piece_Rook"><path d="M748.701,594.7879 C761.489,617.8439 774.835,641.9049 785.574,661.2661 " fill="none" id="Piece-backto-Rook" style="stroke:#181818;stroke-width:1.0;stroke-dasharray:7.0,7.0;"/><polygon fill="none" points="742.434,597.9229,738.855,577.0379,754.677,591.1319,742.434,597.9229" style="stroke:#181818;stroke-width:1.0;"/></g><!--reverse link Piece to Knight--><g id="link_Piece_Knight"><path d="M815.285,580.6909 C860.105,607.7129 910.2,637.9149 948.943,661.2733 " fill="none" id="Piece-backto-Knight" style="stroke:#181818;stroke-width:1.0;stroke-dasharray:7.0,7.0;"/><polygon fill="none" points="811.591,586.6379,798.077,570.3169,818.819,574.6479,811.591,586.6379" style="stroke:#181818;stroke-width:1.0;"/></g><!--reverse link Piece to Queen--><g id="link_Piece_Queen"><path d="M816.999,552.9609 C900.558,582.3589 1016.84,623.6809 1118.5,661.2969 C1123.98,663.3239 1129.61,665.4286 1135.29,667.5637 " fill="none" id="Piece-backto-Queen" style="stroke:#181818;stroke-width:1.0;stroke-dasharray:7.0,7.0;"/><polygon fill="none" points="814.638,559.5509,798.09,546.3149,819.28,546.3429,814.638,559.5509" style="stroke:#181818;stroke-width:1.0;"/></g><!--reverse link Piece to King--><g id="link_Piece_King"><path d="M817.906,535.7639 C943.621,561.5489 1150.91,607.3079 1325.5,661.2969 C1330.99,662.9943 1336.61,664.8363 1342.25,666.7657 " fill="none" id="Piece-backto-King" style="stroke:#181818;stroke-width:1.0;stroke-dasharray:7.0,7.0;"/><polygon fill="none" points="816.268,542.5739,798.068,531.7219,819.063,528.8559,816.268,542.5739" style="stroke:#181818;stroke-width:1.0;"/></g><!--reverse link Game to Board--><g id="link_Game_Board"><path codeLine="77" d="M151.5,203.6739 C151.5,219.4699 151.5,235.5849 151.5,250.2069 " fill="none" id="Game-backto-Board" style="stroke:#181818;stroke-width:1.0;"/><polygon fill="#181818" points="151.5,190.5209,147.5,196.5209,151.5,202.5209,155.5,196.5209,151.5,190.5209" style="stroke:#181818;stroke-width:1.0;"/></g><!--reverse link Board to Box--><g id="link_Board_Box"><path codeLine="78" d="M151.5,376.7769 C151.5,391.7069 151.5,407.6909 151.5,423.2409 " fill="none" id="Board-backto-Box" style="stroke:#181818;stroke-width:1.0;"/><polygon fill="#181818" points="151.5,363.4039,147.5,369.4039,151.5,375.4039,155.5,369.4039,151.5,363.4039" style="stroke:#181818;stroke-width:1.0;"/></g><!--reverse link Box to Coordinate--><g id="link_Box_Coordinate"><path codeLine="79" d="M186.515,614.3009 C192.281,630.9329 197.941,647.2599 202.762,661.1691 " fill="none" id="Box-backto-Coordinate" style="stroke:#181818;stroke-width:1.0;"/><polygon fill="#181818" points="182.097,601.5569,180.2832,608.5361,186.0279,612.8948,187.8418,605.9155,182.097,601.5569" style="stroke:#181818;stroke-width:1.0;"/></g><!--reverse link Piece to Coordinate--><g id="link_Piece_Coordinate"><path codeLine="80" d="M596.516,546.5529 C511.871,574.0489 391.379,615.8429 289.5,661.2969 C283.973,663.7628 278.295,666.4828 272.663,669.3072 " fill="none" id="Piece-backto-Coordinate" style="stroke:#181818;stroke-width:1.0;"/><polygon fill="#181818" points="608.999,542.5169,602.0595,540.5565,597.5808,546.2082,604.5204,548.1686,608.999,542.5169" style="stroke:#181818;stroke-width:1.0;"/></g><!--reverse link Box to colour--><g id="link_Box_colour"><path codeLine="81" d="M117.024,614.3009 C111.347,630.9329 105.774,647.2599 101.0263,661.1691 " fill="none" id="Box-backto-colour" style="stroke:#181818;stroke-width:1.0;"/><polygon fill="#181818" points="121.374,601.5569,115.6507,605.9436,117.4987,612.9139,123.222,608.5272,121.374,601.5569" style="stroke:#181818;stroke-width:1.0;"/></g><!--reverse link Piece to colour--><g id="link_Piece_colour"><path codeLine="82" d="M595.714,529.6869 C479.707,550.0379 291.761,590.9579 142.5,661.2969 C136.864,663.9529 131.204,667.2023 125.772,670.6854 " fill="none" id="Piece-backto-colour" style="stroke:#181818;stroke-width:1.0;"/><polygon fill="#181818" points="608.8,527.4259,602.2064,524.5063,596.9754,529.4698,603.569,532.3894,608.8,527.4259" style="stroke:#181818;stroke-width:1.0;"/></g><!--SRC=[hLGzJyCm4DtzAposGFz0Dze1eGfH46AfEZZEqLXrV97jq1J4VyVs9SGjQnRdFbxUlJjVufNNmEzBiQx0ESQa5ixn1r43_sQStwvGs98NwOo-H8sjvRwr9hhAlGkjoYVyXDaQqPRA20-y3luyvZ_G5geimKI4oo6D0acO0tZARcCeIoJMB7Z7_vNuOGnCM_DULfBCJvNoaAn22tcC86ehUpqX7utdtM2SHzmAEm9aByW_CoOAH0t2S9Io3ThAR3JqY84aVRSdyJIjvnu_ImrQSE393CPbBanbdPXcyrnOk8V-NhhTFd0Ns84RMd3gAzLfi6brK9hWHDTOPVpW1pvHE6-5z9o8QSfzpx7gScnZ7CBoSWXlvmQMFXpNUicDwLIiBo5EXgkwqL23yNt9iHVUe7Egq91seQVOvh6BGIXNOJCPtIlYSJAoZL67oaz6zz82J3UuZJA72SZI3-9ciQ2DPFIN8BzZyVE9zhWuZFRhAZZW-bKRCHJu1G00]--></g></svg>